{"asset":{"version":"2.0","generator":"Blockbench 4.12.4 glTF exporter"},"scenes":[{"nodes":[6],"name":"blockbench_export"}],"scene":0,"nodes":[{"name":"platform","mesh":0},{"translation":[-0.7533460115131578,0,0.3870981085526316],"name":"wire","mesh":1},{"translation":[-0.5033460115131579,0,0.3870981085526316],"name":"wire","mesh":2},{"translation":[-0.25334601151315794,0,0.3870981085526316],"name":"wire","mesh":3},{"translation":[-0.0033460115131579427,0,0.3870981085526316],"name":"wire","mesh":4},{"rotation":[0,0.7071067811865475,0,0.7071067811865476],"translation":[-0.3933481085526316,0.1375,-0.378346011513158],"name":"wires","children":[1,2,3,4]},{"children":[0,5]}],"bufferViews":[{"buffer":0,"byteOffset":0,"byteLength":576,"target":34962,"byteStride":12},{"buffer":0,"byteOffset":576,"byteLength":576,"target":34962,"byteStride":12},{"buffer":0,"byteOffset":1152,"byteLength":384,"target":34962,"byteStride":8},{"buffer":0,"byteOffset":1536,"byteLength":144,"target":34963},{"buffer":0,"byteOffset":1680,"byteLength":2448,"target":34962,"byteStride":12},{"buffer":0,"byteOffset":4128,"byteLength":2448,"target":34962,"byteStride":12},{"buffer":0,"byteOffset":6576,"byteLength":1632,"target":34962,"byteStride":8},{"buffer":0,"byteOffset":8208,"byteLength":612,"target":34963},{"buffer":0,"byteOffset":8820,"byteLength":2304,"target":34962,"byteStride":12},{"buffer":0,"byteOffset":11124,"byteLength":2304,"target":34962,"byteStride":12},{"buffer":0,"byteOffset":13428,"byteLength":1536,"target":34962,"byteStride":8},{"buffer":0,"byteOffset":14964,"byteLength":576,"target":34963},{"buffer":0,"byteOffset":15540,"byteLength":2304,"target":34962,"byteStride":12},{"buffer":0,"byteOffset":17844,"byteLength":2304,"target":34962,"byteStride":12},{"buffer":0,"byteOffset":20148,"byteLength":1536,"target":34962,"byteStride":8},{"buffer":0,"byteOffset":21684,"byteLength":576,"target":34963},{"buffer":0,"byteOffset":22260,"byteLength":2256,"target":34962,"byteStride":12},{"buffer":0,"byteOffset":24516,"byteLength":2256,"target":34962,"byteStride":12},{"buffer":0,"byteOffset":26772,"byteLength":1504,"target":34962,"byteStride":8},{"buffer":0,"byteOffset":28276,"byteLength":564,"target":34963}],"buffers":[{"byteLength":28840,"uri":"data:application/octet-stream;base64,"}],"accessors":[{"bufferView":0,"componentType":5126,"count":48,"max":[0.5,0.05000000074505806,0.5],"min":[-1,-0.05000000074505806,-1],"type":"VEC3"},{"bufferView":1,"componentType":5126,"count":48,"max":[1,1,1],"min":[-1,-1,-1],"type":"VEC3"},{"bufferView":2,"componentType":5126,"count":48,"max":[0.375,0.3125],"min":[0,0],"type":"VEC2"},{"bufferView":3,"componentType":5123,"count":72,"max":[47],"min":[0],"type":"SCALAR"},{"bufferView":4,"componentType":5126,"count":204,"max":[1.375,0.08124999701976776,0.45625001192092896],"min":[-0.08124999701976776,-0.08124999701976776,-1],"type":"VEC3"},{"bufferView":5,"componentType":5126,"count":204,"max":[1,1,1],"min":[-1,-1,-1],"type":"VEC3"},{"bufferView":6,"componentType":5126,"count":204,"max":[0.9375,0.9375],"min":[0,0],"type":"VEC2"},{"bufferView":7,"componentType":5123,"count":306,"max":[203],"min":[0],"type":"SCALAR"},{"bufferView":8,"componentType":5126,"count":192,"max":[1.125,0.08124999701976776,0.20624999701976776],"min":[-0.08124999701976776,-0.08124999701976776,-1],"type":"VEC3"},{"bufferView":9,"componentType":5126,"count":192,"max":[1,1,1],"min":[-1,-1,-1],"type":"VEC3"},{"bufferView":10,"componentType":5126,"count":192,"max":[0.9375,0.9375],"min":[0,0],"type":"VEC2"},{"bufferView":11,"componentType":5123,"count":288,"max":[191],"min":[0],"type":"SCALAR"},{"bufferView":12,"componentType":5126,"count":192,"max":[0.875,0.08124999701976776,-0.04374999925494194],"min":[-0.08124999701976776,-0.08124999701976776,-1],"type":"VEC3"},{"bufferView":13,"componentType":5126,"count":192,"max":[1,1,1],"min":[-1,-1,-1],"type":"VEC3"},{"bufferView":14,"componentType":5126,"count":192,"max":[0.9375,0.9375],"min":[0,0],"type":"VEC2"},{"bufferView":15,"componentType":5123,"count":288,"max":[191],"min":[0],"type":"SCALAR"},{"bufferView":16,"componentType":5126,"count":188,"max":[0.625,0.08124999701976776,-0.29374998807907104],"min":[-0.08124999701976776,-0.08124999701976776,-1],"type":"VEC3"},{"bufferView":17,"componentType":5126,"count":188,"max":[1,1,1],"min":[-1,-1,-1],"type":"VEC3"},{"bufferView":18,"componentType":5126,"count":188,"max":[0.9375,0.9375],"min":[0,0],"type":"VEC2"},{"bufferView":19,"componentType":5123,"count":282,"max":[187],"min":[0],"type":"SCALAR"}],"materials":[{"pbrMetallicRoughness":{"metallicFactor":0,"roughnessFactor":1},"alphaMode":"MASK","alphaCutoff":0.05,"doubleSided":true}],"meshes":[{"primitives":[{"mode":4,"attributes":{"POSITION":0,"NORMAL":1,"TEXCOORD_0":2},"indices":3,"material":0}]},{"primitives":[{"mode":4,"attributes":{"POSITION":4,"NORMAL":5,"TEXCOORD_0":6},"indices":7,"material":0}]},{"primitives":[{"mode":4,"attributes":{"POSITION":8,"NORMAL":9,"TEXCOORD_0":10},"indices":11,"material":0}]},{"primitives":[{"mode":4,"attributes":{"POSITION":12,"NORMAL":13,"TEXCOORD_0":14},"indices":15,"material":0}]},{"primitives":[{"mode":4,"attributes":{"POSITION":16,"NORMAL":17,"TEXCOORD_0":18},"indices":19,"material":0}]}]}