{"asset":{"version":"2.0","generator":"Blockbench 4.12.4 glTF exporter"},"scenes":[{"nodes":[6],"name":"blockbench_export"}],"scene":0,"nodes":[{"name":"platform","mesh":0},{"translation":[-0.4374999999999996,0.13125,-3.96508223080413e-18],"name":"wire","mesh":1},{"translation":[-0.1875,0.13125,-3.96508223080413e-18],"name":"wire","mesh":2},{"translation":[0.062499999999999986,0.13125,-3.96508223080413e-18],"name":"wire","mesh":3},{"translation":[0.3125000000000004,0.13125,-3.96508223080413e-18],"name":"wire","mesh":4},{"translation":[0.05624999999999998,0.00625,0],"name":"wires","children":[1,2,3,4]},{"children":[0,5]}],"bufferViews":[{"buffer":0,"byteOffset":0,"byteLength":288,"target":34962,"byteStride":12},{"buffer":0,"byteOffset":288,"byteLength":288,"target":34962,"byteStride":12},{"buffer":0,"byteOffset":576,"byteLength":192,"target":34962,"byteStride":8},{"buffer":0,"byteOffset":768,"byteLength":72,"target":34963},{"buffer":0,"byteOffset":840,"byteLength":2016,"target":34962,"byteStride":12},{"buffer":0,"byteOffset":2856,"byteLength":2016,"target":34962,"byteStride":12},{"buffer":0,"byteOffset":4872,"byteLength":1344,"target":34962,"byteStride":8},{"buffer":0,"byteOffset":6216,"byteLength":504,"target":34963},{"buffer":0,"byteOffset":6720,"byteLength":2016,"target":34962,"byteStride":12},{"buffer":0,"byteOffset":8736,"byteLength":2016,"target":34962,"byteStride":12},{"buffer":0,"byteOffset":10752,"byteLength":1344,"target":34962,"byteStride":8},{"buffer":0,"byteOffset":12096,"byteLength":504,"target":34963},{"buffer":0,"byteOffset":12600,"byteLength":2016,"target":34962,"byteStride":12},{"buffer":0,"byteOffset":14616,"byteLength":2016,"target":34962,"byteStride":12},{"buffer":0,"byteOffset":16632,"byteLength":1344,"target":34962,"byteStride":8},{"buffer":0,"byteOffset":17976,"byteLength":504,"target":34963},{"buffer":0,"byteOffset":18480,"byteLength":2016,"target":34962,"byteStride":12},{"buffer":0,"byteOffset":20496,"byteLength":2016,"target":34962,"byteStride":12},{"buffer":0,"byteOffset":22512,"byteLength":1344,"target":34962,"byteStride":8},{"buffer":0,"byteOffset":23856,"byteLength":504,"target":34963}],"buffers":[{"byteLength":24360,"uri":"data:application/octet-stream;base64,"}],"accessors":[{"bufferView":0,"componentType":5126,"count":24,"max":[0.5,0.05000000074505806,1],"min":[-0.5,-0.05000000074505806,-1],"type":"VEC3"},{"bufferView":1,"componentType":5126,"count":24,"max":[1,1,1],"min":[-1,-1,-1],"type":"VEC3"},{"bufferView":2,"componentType":5126,"count":24,"max":[0.375,0.3125],"min":[0,0],"type":"VEC2"},{"bufferView":3,"componentType":5123,"count":36,"max":[23],"min":[0],"type":"SCALAR"},{"bufferView":4,"componentType":5126,"count":168,"max":[0.08124999701976776,0.08124999701976776,1],"min":[-0.08124999701976776,-0.08124999701976776,-1],"type":"VEC3"},{"bufferView":5,"componentType":5126,"count":168,"max":[1,1,1],"min":[-1,-1,-1],"type":"VEC3"},{"bufferView":6,"componentType":5126,"count":168,"max":[0.9375,0.9375],"min":[0,0],"type":"VEC2"},{"bufferView":7,"componentType":5123,"count":252,"max":[167],"min":[0],"type":"SCALAR"},{"bufferView":8,"componentType":5126,"count":168,"max":[0.08124999701976776,0.08124999701976776,1],"min":[-0.08124999701976776,-0.08124999701976776,-1],"type":"VEC3"},{"bufferView":9,"componentType":5126,"count":168,"max":[1,1,1],"min":[-1,-1,-1],"type":"VEC3"},{"bufferView":10,"componentType":5126,"count":168,"max":[0.9375,0.9375],"min":[0,0],"type":"VEC2"},{"bufferView":11,"componentType":5123,"count":252,"max":[167],"min":[0],"type":"SCALAR"},{"bufferView":12,"componentType":5126,"count":168,"max":[0.08124999701976776,0.08124999701976776,1],"min":[-0.08124999701976776,-0.08124999701976776,-1],"type":"VEC3"},{"bufferView":13,"componentType":5126,"count":168,"max":[1,1,1],"min":[-1,-1,-1],"type":"VEC3"},{"bufferView":14,"componentType":5126,"count":168,"max":[0.9375,0.9375],"min":[0,0],"type":"VEC2"},{"bufferView":15,"componentType":5123,"count":252,"max":[167],"min":[0],"type":"SCALAR"},{"bufferView":16,"componentType":5126,"count":168,"max":[0.08124999701976776,0.08124999701976776,1],"min":[-0.08124999701976776,-0.08124999701976776,-1],"type":"VEC3"},{"bufferView":17,"componentType":5126,"count":168,"max":[1,1,1],"min":[-1,-1,-1],"type":"VEC3"},{"bufferView":18,"componentType":5126,"count":168,"max":[0.9375,0.9375],"min":[0,0],"type":"VEC2"},{"bufferView":19,"componentType":5123,"count":252,"max":[167],"min":[0],"type":"SCALAR"}],"materials":[{"pbrMetallicRoughness":{"metallicFactor":0,"roughnessFactor":1,"baseColorTexture":{"index":0}},"alphaMode":"MASK","alphaCutoff":0.05,"doubleSided":true},{"pbrMetallicRoughness":{"metallicFactor":0,"roughnessFactor":1},"alphaMode":"MASK","alphaCutoff":0.05,"doubleSided":true}],"textures":[{"sampler":0,"source":0,"name":"platform.png"}],"samplers":[{"magFilter":9728,"minFilter":9728,"wrapS":33071,"wrapT":33071}],"images":[{"mimeType":"image/png","uri":"data:image/png;base64,"}],"meshes":[{"primitives":[{"mode":4,"attributes":{"POSITION":0,"NORMAL":1,"TEXCOORD_0":2},"indices":3,"material":0}]},{"primitives":[{"mode":4,"attributes":{"POSITION":4,"NORMAL":5,"TEXCOORD_0":6},"indices":7,"material":1}]},{"primitives":[{"mode":4,"attributes":{"POSITION":8,"NORMAL":9,"TEXCOORD_0":10},"indices":11,"material":1}]},{"primitives":[{"mode":4,"attributes":{"POSITION":12,"NORMAL":13,"TEXCOORD_0":14},"indices":15,"material":1}]},{"primitives":[{"mode":4,"attributes":{"POSITION":16,"NORMAL":17,"TEXCOORD_0":18},"indices":19,"material":1}]}]}